<svg xmlns="http://www.w3.org/2000/svg" width="168.996" height="32.681" viewBox="0 0 168.996 32.681" fill="none">
  <path d="M 135.751 17.736 C 135.751 12.265 133.419 7.455 125.539 7.455 C 121.494 7.455 118.283 8.595 116.53 9.607 L 117.813 14.004 C 119.412 12.991 121.968 12.155 124.384 12.155 C 128.381 12.146 129.035 14.422 129.035 15.883 L 129.035 16.231 C 120.321 16.217 114.813 19.241 114.813 25.398 C 114.813 29.16 117.62 32.681 122.495 32.681 C 125.495 32.681 128.003 31.484 129.505 29.561 L 129.654 29.561 C 129.654 29.561 130.651 33.733 136.137 32.135 C 135.847 30.397 135.755 28.549 135.755 26.317 L 135.755 17.736 L 135.751 17.736 Z M 129.246 23.51 C 129.246 23.954 129.206 24.416 129.083 24.817 C 128.578 26.489 126.852 27.902 124.687 27.902 C 122.886 27.902 121.454 26.876 121.454 24.711 C 121.454 21.397 125.095 20.477 129.246 20.499 L 129.246 23.51 Z M 7.199 0.004 C 7.871 3.406 9.786 13.278 9.786 13.278 C 10.585 17.335 11.328 21.591 11.885 24.958 L 11.982 24.958 C 12.527 21.384 13.379 18 14.292 13.806 L 17.512 0.004 L 24.636 0.004 L 27.649 14.162 C 28.44 18.101 29.068 21.133 29.564 24.799 L 29.661 24.799 C 30.205 21.098 30.908 17.942 31.686 13.898 L 34.58 0.009 L 41.419 0.009 L 32.946 32.14 C 27.548 33.324 25.484 31.15 24.737 27.695 C 23.995 24.24 22.55 17.661 22.55 17.661 C 21.807 14.061 21.228 11.517 20.824 7.82 L 20.723 7.82 C 20.143 11.482 19.537 14.048 18.636 17.648 L 15.083 32.144 C 9.575 33.244 7.664 31.612 6.602 27.184 C 5.692 23.391 0 0.013 0 0.013 L 7.203 0.013 L 7.199 0.004 Z M 60.85 17.736 C 60.85 12.265 58.518 7.455 50.638 7.455 C 46.593 7.455 43.378 8.595 41.63 9.607 L 42.912 14.004 C 44.515 12.991 47.067 12.155 49.483 12.155 C 53.484 12.146 54.139 14.422 54.139 15.883 L 54.139 16.231 C 45.424 16.217 39.917 19.241 39.917 25.398 C 39.917 29.16 42.719 32.681 47.594 32.681 C 50.594 32.681 53.102 31.484 54.609 29.561 L 54.758 29.561 C 54.758 29.561 55.755 33.733 61.241 32.135 C 60.951 30.397 60.859 28.549 60.859 26.317 L 60.859 17.736 L 60.85 17.736 Z M 54.345 23.51 C 54.345 23.954 54.306 24.416 54.183 24.817 C 53.677 26.489 51.951 27.902 49.79 27.902 C 47.99 27.902 46.558 26.876 46.558 24.711 C 46.558 21.397 50.199 20.477 54.345 20.499 L 54.345 23.51 Z M 71.708 32.135 L 65.198 32.135 L 65.198 0.004 L 71.708 0.004 L 71.708 32.135 Z M 163.325 0.004 L 163.325 7.6 L 168.996 7.6 L 168.996 13.748 L 163.325 13.748 L 163.325 22.814 C 163.325 25.75 164.068 27.171 166.286 27.171 C 167.331 27.171 168.095 27.039 168.758 26.876 L 168.842 31.973 C 167.95 32.307 166.053 32.672 164.129 32.672 C 161.863 32.672 159.974 31.88 158.828 30.657 C 157.514 29.257 156.899 26.969 156.899 23.703 L 156.899 0 L 163.321 0 L 163.325 0.004 Z M 145.989 7.996 L 145.989 12.551 L 146.174 12.551 C 147.373 9.075 150.223 7.455 152.731 7.455 C 153.359 7.455 153.706 7.504 154.211 7.605 L 154.211 13.924 C 153.61 13.836 153.052 13.753 152.274 13.753 C 149.437 13.753 147.46 15.408 146.964 17.995 C 146.859 18.528 146.819 19.109 146.819 19.778 L 146.819 32.135 L 140.103 32.135 L 140.103 7.996 L 145.998 7.996 L 145.989 7.996 Z M 82.482 7.996 L 82.482 11.275 L 82.578 11.275 C 83.69 9.519 85.521 7.451 89.593 7.451 C 92.764 7.451 95.197 9.167 96.234 11.768 L 96.33 11.768 C 97.222 10.457 98.241 9.462 99.383 8.762 C 100.74 7.93 102.238 7.451 104.135 7.451 C 108.427 7.451 112.222 10.421 112.222 17.916 L 112.222 32.131 L 105.677 32.131 L 105.677 18.906 C 105.677 15.108 104.39 12.908 101.715 12.908 C 99.752 12.908 98.325 14.228 97.789 15.848 C 97.604 16.407 97.516 17.172 97.516 17.806 L 97.516 32.131 L 90.976 32.131 L 90.976 18.374 C 90.976 15.144 89.742 12.908 87.098 12.908 C 84.985 12.908 83.663 14.576 83.119 16.002 C 82.886 16.613 82.811 17.313 82.811 17.978 L 82.811 32.135 L 76.267 32.135 L 76.267 7.996 L 82.482 7.996 Z" fill="currentColor" fill-rule="nonzero"></path>
</svg>